<svg width="26" height="26" viewBox="0 0 26 26" fill="none" xmlns="http://www.w3.org/2000/svg">
<circle cx="13" cy="13" r="13" fill="#EB5757"/>
<path d="M16.73 16.884C15.806 17.796 14.678 18.252 13.346 18.252C12.014 18.252 10.886 17.796 9.962 16.884C9.05 15.96 8.594 14.832 8.594 13.5C8.594 12.168 9.05 11.046 9.962 10.134C10.886 9.21 12.014 8.748 13.346 8.748C14.678 8.748 15.806 9.21 16.73 10.134C17.654 11.046 18.116 12.168 18.116 13.5C18.116 14.832 17.654 15.96 16.73 16.884ZM11.6 15.282C12.068 15.75 12.65 15.984 13.346 15.984C14.042 15.984 14.624 15.75 15.092 15.282C15.56 14.814 15.794 14.22 15.794 13.5C15.794 12.78 15.56 12.186 15.092 11.718C14.624 11.25 14.042 11.016 13.346 11.016C12.65 11.016 12.068 11.25 11.6 11.718C11.144 12.186 10.916 12.78 10.916 13.5C10.916 14.22 11.144 14.814 11.6 15.282Z" fill="white"/>
<rect x="11.5" y="7" width="1" height="13" fill="white"/>
<rect x="13.5" y="7" width="1" height="13" fill="white"/>
</svg>
