<svg width="1440" height="267" viewBox="0 0 1440 267" fill="none" xmlns="http://www.w3.org/2000/svg">
<g clip-path="url(#clip0)">
<path d="M1439 0H0V266H1439V0Z" fill="#2F80ED"/>
<path fill-rule="evenodd" clip-rule="evenodd" d="M-80 150.904L-40.7775 142.683C-2.9075 134.462 74.185 118.019 151.277 126.241C229.723 134.462 306.815 167.346 383.908 172.827C461 178.308 538.092 156.385 615.185 142.683C692.277 128.981 770.722 123.5 847.815 137.202C924.907 150.904 1002 183.789 1079.09 183.789C1156.18 183.789 1233.28 150.904 1311.72 148.164C1388.81 145.423 1465.91 172.827 1503.78 186.529L1543 200.231V266H1503.78C1465.91 266 1388.81 266 1311.72 266C1233.28 266 1156.18 266 1079.09 266C1002 266 924.907 266 847.815 266C770.722 266 692.277 266 615.185 266C538.092 266 461 266 383.908 266C306.815 266 229.723 266 151.277 266C74.185 266 -2.9075 266 -40.7775 266H-80V150.904Z" fill="#2F87ED" stroke="white" stroke-opacity="0.2"/>
</g>
<defs>
<clipPath id="clip0">
<rect width="1440" height="267" fill="white"/>
</clipPath>
</defs>
</svg>
