<svg width="76" height="99" viewBox="0 0 76 99" fill="none" xmlns="http://www.w3.org/2000/svg">
<path d="M0 0H76V94C76 96.7614 73.7614 99 71 99H5C2.23858 99 0 96.7614 0 94V0Z" fill="url(#paint0_linear)" fill-opacity="0.3"/>
<path fill-rule="evenodd" clip-rule="evenodd" d="M56.6296 12.8636L56.426 14.12H49.2602V29.34L46.3629 29.757C46.1666 29.0688 45.9792 28.4 45.7984 27.7551C45.3643 26.2064 44.9688 24.7956 44.584 23.5857C44.3132 22.7346 44.0607 22.0254 43.8204 21.4719C43.7767 21.3713 43.7349 21.2793 43.6951 21.1956C43.1965 22.2167 42.5772 24.0932 41.8279 27.1669L41.8222 27.1904L39.8201 34.3977L39.784 34.4845C39.3194 35.5989 38.8467 36.6543 38.318 37.4671C37.8103 38.2475 37.0532 39.1172 35.9039 39.3328C34.7192 39.5551 33.6594 38.989 32.7848 38.2472C31.8906 37.4888 30.9232 36.3244 29.8311 34.7714L29.7616 34.6726L23.7264 22.2575L23.6883 22.1009L23.6881 22.0999L23.6864 22.0931L23.6768 22.0557C23.6692 22.0265 23.658 21.9843 23.6435 21.9317C23.6297 21.9861 23.6158 22.0419 23.6019 22.0993C23.2849 23.4033 22.9435 25.0709 22.5657 26.9163C22.513 27.1737 22.4596 27.4346 22.4054 27.6984C21.9669 29.8351 21.4838 32.1443 20.9516 34.2695C20.4237 36.3777 19.8278 38.3869 19.1458 39.8937C18.8074 40.6415 18.4095 41.353 17.9286 41.8996C17.4574 42.435 16.7346 43 15.7633 43C14.917 43 14.191 42.5809 13.6607 42.1717C13.102 41.7408 12.5651 41.1682 12.0665 40.5528C11.0657 39.3175 10.0636 37.7139 9.18704 36.1683C8.30402 34.6114 7.51914 33.0609 6.95661 31.9037C6.75848 31.4961 6.58729 31.136 6.44841 30.84H0V27.84H8.34256L8.73545 28.7217L8.73846 28.7284L8.74913 28.7522L8.79291 28.8491C8.83184 28.9349 8.88988 29.062 8.96513 29.2245C9.11567 29.5497 9.33478 30.016 9.60713 30.5763C10.153 31.6991 10.9075 33.1886 11.7486 34.6716C12.5961 36.1661 13.5028 37.6025 14.3493 38.6472C14.7743 39.1718 15.1456 39.5492 15.4491 39.7833C15.5496 39.8608 15.6279 39.9112 15.6852 39.9439C15.6972 39.9312 15.7102 39.917 15.7243 39.9011C15.9225 39.6757 16.1751 39.271 16.4601 38.6413C17.025 37.3931 17.5683 35.6022 18.0871 33.5305C18.6017 31.4757 19.0731 29.2249 19.5119 27.0866C19.5656 26.8251 19.6189 26.5649 19.6717 26.3069C20.0471 24.4727 20.4012 22.7431 20.7323 21.3807C20.9285 20.5734 21.1378 19.9111 21.3678 19.3856C21.5851 18.8889 21.8803 18.373 22.3217 18.0098C22.8518 17.5736 23.5597 17.3977 24.2627 17.6606C24.8238 17.8705 25.1863 18.2925 25.3869 18.5676C25.8071 19.1439 26.0972 19.9006 26.2655 20.3953C26.3573 20.6649 26.4288 20.9059 26.4777 21.0799C26.4915 21.1291 26.5035 21.1734 26.5139 21.2118L32.3058 33.1264C33.3198 34.5593 34.0916 35.4461 34.68 35.9451C35.0848 36.2885 35.2984 36.3618 35.3689 36.3767C35.4202 36.3456 35.5844 36.2247 35.8516 35.814C36.2047 35.2712 36.5758 34.4769 37.026 33.4017L38.9646 26.4228C39.7975 23.0094 40.5521 20.6886 41.3131 19.3586C41.6678 18.7386 42.2101 17.9907 43.0578 17.7142C44.1282 17.3651 44.9736 17.9369 45.4393 18.4441C45.7793 18.8143 46.0624 19.2872 46.3046 19.7825V11.12H53.9526C53.9692 11.0407 53.9867 10.9585 54.005 10.8737C54.1961 9.98925 54.4855 8.79612 54.876 7.59129C55.2604 6.40526 55.7705 5.11914 56.4307 4.10057C57.0402 3.16016 58.0722 2 59.6049 2C61.0477 2 62.0002 2.90858 62.5818 3.83213C63.1472 4.72993 63.5172 5.86558 63.7997 6.89884C63.9451 7.43053 64.077 7.97391 64.2008 8.48706L64.225 8.58729C64.3416 9.07077 64.4507 9.52339 64.564 9.94714C64.704 10.4708 64.8325 10.8749 64.95 11.1755C65.1034 11.0897 65.2917 10.9723 65.5158 10.8153C66.4896 10.1334 67.7225 9.00718 68.9721 7.75329C70.207 6.51412 71.4025 5.20699 72.2927 4.2053C72.7368 3.70552 73.1029 3.28414 73.3573 2.98838C73.4845 2.84055 73.5837 2.72422 73.6507 2.64533L73.7265 2.55585L73.7507 2.52716L74.8755 3.5C76.0003 4.47298 76.0002 4.47311 76 4.47329L75.9979 4.47576L75.9708 4.50798L75.8894 4.60404C75.8186 4.68744 75.7152 4.80862 75.5836 4.96162C75.3204 5.26753 74.9437 5.70115 74.4874 6.2147C73.5765 7.23967 72.3397 8.59255 71.0501 9.88671C69.775 11.1661 68.3911 12.4466 67.1943 13.2847C66.6121 13.6924 65.9607 14.0776 65.3198 14.2564C64.6876 14.4327 63.5762 14.5077 62.8504 13.5124C62.2942 12.7496 61.9602 11.663 61.7115 10.7329C61.5881 10.2712 61.4705 9.78345 61.3563 9.30947L61.33 9.20044C61.2055 8.68442 61.0835 8.1828 60.9518 7.70116C60.6801 6.70775 60.4036 5.9434 60.0915 5.44787C59.8068 4.99581 59.6518 4.99905 59.6093 4.99993C59.6077 4.99997 59.6062 5 59.6049 5C59.6096 5 59.612 4.99985 59.6121 5.00008C59.6124 5.00248 59.3552 5.04688 58.8998 5.74942C58.4517 6.44086 58.0381 7.43474 57.6836 8.52871C57.3352 9.60388 57.0704 10.6907 56.892 11.5163C56.8033 11.927 56.7369 12.2684 56.6931 12.5052C56.6712 12.6236 56.6549 12.7155 56.6443 12.7768L56.6327 12.8449L56.6301 12.8606L56.6296 12.8636ZM22.9805 20.3146C22.9806 20.3142 22.9847 20.3182 22.9926 20.328C22.9844 20.3199 22.9804 20.315 22.9805 20.3146Z" fill="#13E835"/>
<path d="M22.1918 62.136V65.04H18.2318V69H15.3278V65.04H11.3918V62.136H15.3278V58.2H18.2318V62.136H22.1918ZM30.6323 61.32C32.2483 61.32 33.6083 61.808 34.7123 62.784C35.8163 63.744 36.3683 65.088 36.3683 66.816C36.3683 68.544 35.7843 69.896 34.6163 70.872C33.4643 71.848 32.0483 72.336 30.3683 72.336C29.0083 72.336 27.8083 72.032 26.7683 71.424C25.7283 70.816 24.9763 69.92 24.5123 68.736L27.3443 67.08C27.7603 68.424 28.7683 69.096 30.3683 69.096C31.2163 69.096 31.8723 68.896 32.3363 68.496C32.8163 68.08 33.0563 67.52 33.0563 66.816C33.0563 66.128 32.8243 65.576 32.3603 65.16C31.8963 64.744 31.2643 64.536 30.4643 64.536H25.3763L26.0483 55.2H35.5763V58.296H29.1203L28.9043 61.32H30.6323ZM44.9602 72.336C42.8642 72.336 41.2162 71.544 40.0162 69.96C38.8322 68.36 38.2402 66.24 38.2402 63.6C38.2402 60.96 38.8322 58.848 40.0162 57.264C41.2162 55.664 42.8642 54.864 44.9602 54.864C47.0722 54.864 48.7202 55.664 49.9042 57.264C51.0882 58.848 51.6802 60.96 51.6802 63.6C51.6802 66.24 51.0882 68.36 49.9042 69.96C48.7202 71.544 47.0722 72.336 44.9602 72.336ZM42.4162 67.704C42.9922 68.632 43.8402 69.096 44.9602 69.096C46.0802 69.096 46.9282 68.624 47.5042 67.68C48.0962 66.736 48.3922 65.376 48.3922 63.6C48.3922 61.808 48.0962 60.44 47.5042 59.496C46.9282 58.552 46.0802 58.08 44.9602 58.08C43.8402 58.08 42.9922 58.552 42.4162 59.496C41.8402 60.44 41.5522 61.808 41.5522 63.6C41.5522 65.392 41.8402 66.76 42.4162 67.704ZM60.5446 61.656C59.7766 62.408 58.8166 62.784 57.6646 62.784C56.5126 62.784 55.5446 62.4 54.7606 61.632C53.9926 60.864 53.6086 59.928 53.6086 58.824C53.6086 57.72 53.9926 56.784 54.7606 56.016C55.5446 55.248 56.5126 54.864 57.6646 54.864C58.8166 54.864 59.7766 55.248 60.5446 56.016C61.3126 56.768 61.6966 57.704 61.6966 58.824C61.6966 59.944 61.3126 60.888 60.5446 61.656ZM55.3126 69.456L66.2566 57.288L67.7206 58.104L56.7526 70.296L55.3126 69.456ZM56.5606 59.928C56.8486 60.216 57.2086 60.36 57.6406 60.36C58.0726 60.36 58.4326 60.216 58.7206 59.928C59.0086 59.624 59.1526 59.256 59.1526 58.824C59.1526 58.392 59.0086 58.032 58.7206 57.744C58.4326 57.456 58.0726 57.312 57.6406 57.312C57.2086 57.312 56.8486 57.456 56.5606 57.744C56.2886 58.032 56.1526 58.392 56.1526 58.824C56.1526 59.256 56.2886 59.624 56.5606 59.928ZM68.6566 71.136C67.8886 71.904 66.9286 72.288 65.7766 72.288C64.6246 72.288 63.6646 71.904 62.8966 71.136C62.1286 70.368 61.7446 69.432 61.7446 68.328C61.7446 67.224 62.1286 66.288 62.8966 65.52C63.6646 64.752 64.6246 64.368 65.7766 64.368C66.9286 64.368 67.8886 64.752 68.6566 65.52C69.4246 66.288 69.8086 67.224 69.8086 68.328C69.8086 69.432 69.4246 70.368 68.6566 71.136ZM64.6966 69.432C64.9846 69.72 65.3446 69.864 65.7766 69.864C66.2086 69.864 66.5606 69.712 66.8326 69.408C67.1206 69.104 67.2646 68.744 67.2646 68.328C67.2646 67.896 67.1206 67.536 66.8326 67.248C66.5606 66.944 66.2086 66.792 65.7766 66.792C65.3446 66.792 64.9846 66.944 64.6966 67.248C64.4246 67.536 64.2886 67.896 64.2886 68.328C64.2886 68.76 64.4246 69.128 64.6966 69.432Z" fill="#13E835"/>
<defs>
<linearGradient id="paint0_linear" x1="38" y1="0" x2="38" y2="99" gradientUnits="userSpaceOnUse">
<stop stop-color="#27AE60" stop-opacity="0"/>
<stop offset="1" stop-color="#27AE60"/>
</linearGradient>
</defs>
</svg>
