<svg width="60" height="60" viewBox="0 0 60 60" fill="none" xmlns="http://www.w3.org/2000/svg">
<path d="M20.2207 45.9262C20.2055 45.8512 20.1832 45.7773 20.1539 45.7059C20.1246 45.6355 20.0883 45.5676 20.0461 45.5043C20.0039 45.4398 19.9547 45.3801 19.9008 45.3262C19.8469 45.2723 19.7871 45.223 19.7227 45.1809C19.6594 45.1387 19.5914 45.1023 19.5199 45.073C19.4496 45.0438 19.3758 45.0203 19.3008 45.0062C19.1496 44.9758 18.9938 44.9758 18.8438 45.0062C18.7688 45.0203 18.6949 45.0438 18.6234 45.073C18.5531 45.1023 18.4852 45.1387 18.4219 45.1809C18.3574 45.223 18.2977 45.2723 18.2437 45.3262C18.1898 45.3801 18.1406 45.4398 18.0984 45.5043C18.0551 45.5676 18.0199 45.6355 17.9906 45.7059C17.9613 45.7773 17.9379 45.8512 17.9238 45.9262C17.9086 46.0012 17.9004 46.0785 17.9004 46.1547C17.9004 46.2308 17.9086 46.3082 17.9238 46.3832C17.9379 46.4582 17.9613 46.532 17.9906 46.6023C18.0199 46.6738 18.0551 46.7418 18.0984 46.8051C18.1406 46.8695 18.1898 46.9293 18.2437 46.9832C18.2977 47.0371 18.3574 47.0863 18.4219 47.1285C18.4852 47.1708 18.5531 47.2071 18.6234 47.2364C18.6949 47.2657 18.7688 47.2892 18.8438 47.3032C18.9188 47.3185 18.9961 47.3267 19.0723 47.3267C19.1484 47.3267 19.2258 47.3185 19.3008 47.3032C19.3758 47.2892 19.4496 47.2657 19.5199 47.2364C19.5914 47.2071 19.6594 47.1707 19.7227 47.1285C19.7871 47.0863 19.8469 47.0371 19.9008 46.9832C19.9547 46.9293 20.0039 46.8695 20.0461 46.8051C20.0883 46.7418 20.1246 46.6738 20.1539 46.6023C20.1832 46.532 20.2055 46.4582 20.2207 46.3832C20.2359 46.3082 20.2441 46.2308 20.2441 46.1547C20.2441 46.0785 20.2359 46.0012 20.2207 45.9262Z" fill="#0F7BFE"/>
<path d="M53.9054 46.2871C53.9009 46.2754 53.8962 46.2638 53.8913 46.2523C52.8127 43.7284 50.283 42.7956 47.2894 43.8181L39.1252 46.0758C38.6531 44.6464 37.4757 43.43 35.811 42.8122C35.8007 42.8084 35.7904 42.8047 35.7799 42.8011L26.8056 39.7552C26.0586 38.7897 23.7189 36.3192 19.338 36.3192C16.2765 36.3192 13.5682 38.4194 12.0187 40.7086H1.17188C0.524648 40.7086 0 41.2333 0 41.8805V56.6552C0 57.3024 0.524648 57.827 1.17188 57.827H8.13949C8.78672 57.827 9.31137 57.3024 9.31137 56.6552V55.6434H12.5789C13.2261 55.6434 13.7508 55.1187 13.7508 54.4715V54.1342C15.6555 54.3004 16.282 54.6617 18.0314 55.6704C19.3767 56.4462 21.41 57.6187 25.0717 59.265C25.0887 59.2727 25.1059 59.2799 25.1231 59.2867C25.8259 59.5632 27.1997 59.9975 28.8934 59.9975C30.0723 59.9975 31.4065 59.7869 32.7759 59.1661L50.8218 52.7049C50.8539 52.6934 50.8855 52.6805 50.9164 52.6662C52.6411 51.8727 55.2111 49.6365 53.9054 46.2871ZM6.96762 55.4832H2.34375V43.0523H6.96762V55.4832ZM11.407 53.2995H9.31137V43.0523H11.407V53.2995ZM49.98 50.5167L31.9423 56.975C31.9264 56.9806 31.905 56.989 31.8894 56.9954C31.8736 57.0018 31.8578 57.0086 31.8422 57.0157C29.33 58.1703 26.9421 57.4791 26.0063 57.1152C22.4693 55.5237 20.5815 54.4352 19.2022 53.6398C17.2846 52.534 16.3605 52.0011 13.7508 51.7856V42.347C14.8616 40.5264 17.0157 38.6628 19.3382 38.6628C23.3209 38.6628 25.0085 41.2532 25.0748 41.3577C25.2179 41.5905 25.4379 41.7659 25.6965 41.8537L35.01 45.0147C36.4975 45.573 37.2836 46.8468 36.9223 48.1171C36.7555 48.7038 36.3702 49.1903 35.8375 49.4872C35.3093 49.7814 34.6987 49.8542 34.1168 49.6932L23.6176 46.366C23.0003 46.1704 22.3419 46.5121 22.1464 47.1291C21.9509 47.7461 22.2926 48.4047 22.9096 48.6003L33.427 51.9332C33.4382 51.9367 33.4493 51.9401 33.4605 51.9433C33.8804 52.0627 34.3079 52.1218 34.7328 52.1218C35.5107 52.1218 36.2801 51.9236 36.9783 51.5345C38.0579 50.933 38.8386 49.947 39.1766 48.7581C39.2036 48.6632 39.2275 48.5683 39.2482 48.4734L48.047 46.0359C49.3178 45.6018 50.9859 45.4454 51.7287 47.1559C52.4974 49.1642 50.4994 50.2689 49.98 50.5167Z" fill="#0F7BFE"/>
<path d="M42.0773 15.4153C42.0621 15.3403 42.0398 15.2665 42.0094 15.195C41.9801 15.1247 41.9449 15.0567 41.9016 14.9934C41.8594 14.929 41.8102 14.8692 41.7563 14.8153C41.7023 14.7614 41.6426 14.7122 41.5781 14.67C41.5148 14.6278 41.4469 14.5915 41.3766 14.5622C41.3051 14.5329 41.2312 14.5094 41.1574 14.4954C41.0062 14.4649 40.8504 14.4649 40.6992 14.4954C40.6242 14.5094 40.5504 14.5329 40.4801 14.5622C40.4086 14.5915 40.3406 14.6278 40.2773 14.67C40.2129 14.7122 40.1531 14.7614 40.0992 14.8153C40.0453 14.8692 39.9961 14.929 39.9539 14.9934C39.9117 15.0567 39.8754 15.1247 39.8461 15.195C39.8168 15.2665 39.7934 15.3403 39.7793 15.4153C39.7641 15.4903 39.7559 15.5677 39.7559 15.6438C39.7559 15.72 39.7641 15.7973 39.7793 15.8723C39.7934 15.9473 39.8168 16.0212 39.8461 16.0915C39.8754 16.163 39.9117 16.2309 39.9539 16.2942C39.9961 16.3587 40.0453 16.4184 40.0992 16.4723C40.1531 16.5262 40.2129 16.5755 40.2773 16.6176C40.3406 16.6598 40.4086 16.6962 40.4801 16.7255C40.5504 16.7548 40.6242 16.777 40.6992 16.7923C40.7742 16.8075 40.8516 16.8157 40.9277 16.8157C41.0039 16.8157 41.0812 16.8075 41.1574 16.7923C41.2312 16.777 41.3051 16.7548 41.3766 16.7255C41.4469 16.6962 41.5148 16.6598 41.5781 16.6176C41.6426 16.5755 41.7023 16.5262 41.7563 16.4723C41.8102 16.4184 41.8594 16.3587 41.9016 16.2942C41.9449 16.2309 41.9801 16.163 42.0094 16.0915C42.0398 16.0212 42.0621 15.9473 42.0773 15.8723C42.0926 15.7973 42.0996 15.72 42.0996 15.6438C42.0996 15.5677 42.0926 15.4903 42.0773 15.4153Z" fill="#0F7BFE"/>
<path d="M58.8277 3.97138H51.8601C51.2129 3.97138 50.6882 4.49603 50.6882 5.14325V6.15505H47.4207C46.7735 6.15505 46.2488 6.6797 46.2488 7.32693V7.66419C44.344 7.4979 43.7176 7.13673 41.9683 6.12798C40.623 5.3522 38.5897 4.17974 34.9279 2.53337C34.9109 2.52564 34.8938 2.51849 34.8763 2.51169C33.6844 2.04271 30.5606 1.11997 27.2241 2.63204L22.5085 4.32048L18.5336 0.345715C18.076 -0.111902 17.334 -0.111902 16.8763 0.345715L3.82658 13.3954C3.40447 13.8176 3.3235 14.5497 3.82658 15.0527L26.1258 37.352C26.4827 37.709 27.3182 37.8169 27.7832 37.352L39.6971 25.4383C40.0068 25.465 40.3283 25.4794 40.6614 25.4794C43.7231 25.4794 46.4313 23.3792 47.9806 21.09H58.8277C59.4749 21.09 59.9996 20.5654 59.9996 19.9181V5.14325C59.9996 4.49603 59.4749 3.97138 58.8277 3.97138ZM17.7049 2.83161L20.3758 5.50255C19.5819 5.99357 18.6639 6.2563 17.7049 6.2563C16.7457 6.2563 15.8279 5.99368 15.0339 5.50255L17.7049 2.83161ZM8.98354 16.8951L6.3126 14.224L8.98354 11.5531C9.47455 12.347 9.73729 13.2649 9.73729 14.224C9.73729 15.1831 9.47467 16.101 8.98354 16.8951ZM26.9546 34.866L24.2841 32.1955C25.9145 31.1893 27.9944 31.1893 29.6249 32.1955L26.9546 34.866ZM31.3134 30.5073C28.7238 28.6288 25.1854 28.6288 22.5958 30.5073L10.6719 18.5833C11.587 17.3247 12.081 15.8128 12.081 14.224C12.081 12.6351 11.5871 11.1233 10.6719 9.86474L13.3457 7.19099C14.6043 8.10611 16.116 8.60017 17.705 8.60017C19.2939 8.60017 20.8056 8.10611 22.0642 7.19099L24.5989 9.72564C24.052 9.80638 23.5187 9.98661 23.0213 10.2638C22.1813 10.7318 21.5222 11.4327 21.1119 12.2807C19.79 12.5255 18.5662 13.1654 17.6062 14.1253C15.0017 16.7299 15.0017 20.9678 17.6063 23.5724C18.9085 24.8746 20.6191 25.5258 22.3298 25.5258C24.0404 25.5258 25.7511 24.8747 27.0534 23.5724C27.9006 22.7251 28.4942 21.6838 28.7915 20.549L32.7482 21.8918C32.3028 23.9552 32.759 26.126 33.9896 27.8311L31.3134 30.5073ZM24.1886 18.9863C24.1989 18.99 24.2092 18.9938 24.2197 18.9973L26.5629 19.7926C26.386 20.5913 25.9856 21.3256 25.3961 21.9151C23.7053 23.6057 20.9542 23.6059 19.2637 21.9151C17.5729 20.2245 17.5729 17.4735 19.2637 15.7827C19.6715 15.3747 20.1528 15.0558 20.6772 14.8396C20.8935 16.6398 22.1897 18.2445 24.1886 18.9863ZM35.6781 26.1424C35.2258 25.4053 34.9699 24.564 34.9294 23.7054C35.4908 24.1112 36.1768 24.5088 36.9962 24.8244L35.6781 26.1424ZM46.2487 19.4509C45.138 21.2718 42.9838 23.1354 40.6614 23.1354C40.2269 23.1354 39.8197 23.1045 39.4389 23.0494C39.4374 23.0492 39.4359 23.0489 39.4344 23.0487C36.9036 22.6811 35.5422 21.2427 35.0935 20.6732C35.0696 20.638 34.9678 20.5048 34.9526 20.4826C34.8161 20.2386 34.5923 20.0425 34.3068 19.9456L24.9895 16.7833C23.5026 16.2252 22.7166 14.952 23.0769 13.6821C23.0771 13.6813 23.0773 13.6805 23.0776 13.6797C23.0779 13.6787 23.0781 13.6777 23.0784 13.6767C23.2458 13.092 23.6304 12.6069 24.162 12.3108C24.6901 12.0165 25.3005 11.9435 25.8827 12.1049L36.3819 15.432C36.999 15.6278 37.6576 15.2858 37.853 14.6688C38.0485 14.0518 37.7069 13.3933 37.0899 13.1977L28.7397 10.5516L28.6668 10.4787C28.6661 10.478 28.6654 10.4772 28.6646 10.4765L24.3415 6.15341L28.0573 4.82286C28.0699 4.81829 28.0853 4.81255 28.0978 4.80751C28.1009 4.80622 28.107 4.80388 28.1101 4.80259C28.126 4.79614 28.1417 4.78935 28.1573 4.7822C30.6693 3.62767 33.0571 4.31872 33.9931 4.68271C37.5302 6.27423 39.4181 7.36279 40.7974 8.15814C42.715 9.26404 43.639 9.79689 46.2487 10.0124V19.4509ZM50.6882 18.746H48.5926V8.4988H50.6882V18.746ZM57.6558 18.746H53.032V6.31513H57.6558V18.746Z" fill="#0F7BFE"/>
</svg>
