<svg width="60" height="60" viewBox="0 0 60 60" fill="none" xmlns="http://www.w3.org/2000/svg">
<path d="M49.1039 39.9565H43.0912V41.9608H49.1039V39.9565Z" fill="#0F7BFE"/>
<path d="M41.0869 39.9565H35.0742V41.9608H41.0869V39.9565Z" fill="#0F7BFE"/>
<path d="M33.07 39.9565H27.0573V41.9608H33.07V39.9565Z" fill="#0F7BFE"/>
<path d="M59.1121 20.7189L39.2831 0.886879C38.7201 0.318426 37.9528 -0.00099977 37.1526 2.35083e-06H37.1436C36.3487 0.000378146 35.5873 0.319929 35.0301 0.886879L13.9956 21.9184H3.00636C1.34597 21.9184 0 23.2644 0 24.9248V52.9841C0 54.6445 1.34597 55.9905 3.00636 55.9905H17.8538L20.8441 58.9838C21.4072 59.5523 22.1744 59.8717 22.9746 59.8707H22.9826C23.7778 59.8705 24.5397 59.5509 25.0971 58.9838L28.0935 55.9905H51.1082C52.7686 55.9905 54.1145 54.6445 54.1145 52.9841V29.9694L59.1071 24.9769C59.6769 24.4191 59.9986 23.6557 60 22.8584C60.003 22.0549 59.6831 21.284 59.1121 20.7189ZM46.3641 10.8049L35.2506 21.9184H26.7406L42.1091 6.54986L46.3641 10.8049ZM36.4491 2.29987C36.8303 1.90942 37.4559 1.9019 37.8465 2.28321C37.8521 2.28872 37.8577 2.29423 37.8631 2.29987L40.6921 5.13287L23.9056 21.9184H16.8296L36.4491 2.29987ZM23.6781 57.5708C23.4948 57.7622 23.2416 57.8707 22.9766 57.8715C22.7081 57.8708 22.451 57.7626 22.2631 57.5708L20.6888 55.9905H25.2595L23.6781 57.5708ZM52.1103 52.9841C52.1103 53.5376 51.6616 53.9863 51.1082 53.9863H3.00636C2.45294 53.9863 2.00424 53.5376 2.00424 52.9841V38.9544H52.1103V52.9841ZM52.1103 36.9502H2.00424V30.9375H52.1103V36.9502ZM52.1103 28.9332H2.00424V24.9248C2.00424 24.3713 2.45294 23.9226 3.00636 23.9226H51.1082C51.6616 23.9226 52.1103 24.3713 52.1103 24.9248V28.9332ZM57.6951 23.5549L54.1145 27.1354V24.9248C54.1145 23.2644 52.7686 21.9184 51.1082 21.9184H38.0806L47.7771 12.2219L57.6911 22.1359C57.8836 22.3245 57.992 22.5828 57.9917 22.8524C57.9915 23.1169 57.8845 23.3702 57.6951 23.5549Z" fill="#0F7BFE"/>
<path d="M9.61136 52.0091C9.75767 51.8825 9.89471 51.7455 10.0212 51.5992C11.3464 53.1427 13.6233 53.4359 15.2964 52.2786C16.3762 51.5236 17.0243 50.2932 17.0361 48.9756C17.0361 46.7618 15.2414 44.9671 13.0276 44.9671C12.8287 44.9644 12.63 44.9812 12.4343 45.0173L12.4083 45.0243C12.3983 45.0243 12.3882 45.0243 12.3792 45.0243C11.4611 45.1768 10.6263 45.648 10.0212 46.3551C8.57316 44.6805 6.04168 44.497 4.36726 45.9452C2.69271 47.3933 2.5092 49.9248 3.95739 51.5992C5.40546 53.2737 7.93681 53.4572 9.61136 52.0091ZM12.774 46.9924C12.8576 46.9765 12.9425 46.9695 13.0276 46.9714C14.1346 46.9714 15.0318 47.8687 15.0318 48.9756C15.0308 49.3997 14.8927 49.812 14.638 50.1511C14.6019 50.2002 14.5739 50.2513 14.5328 50.3024C14.5258 50.3105 14.5157 50.3155 14.5077 50.3235C14.1292 50.7415 13.5915 50.98 13.0276 50.9799C11.9209 50.961 11.0389 50.0485 11.0578 48.9418C11.0746 47.9591 11.8014 47.1335 12.774 46.9924ZM7.01486 46.9714C8.12183 46.9714 9.0191 47.8687 9.0191 48.9756C9.0191 50.0826 8.12183 50.9799 7.01486 50.9799C5.90789 50.9799 5.01062 50.0826 5.01062 48.9756C5.01062 47.8687 5.90789 46.9714 7.01486 46.9714Z" fill="#0F7BFE"/>
</svg>
