<svg width="54" height="60" viewBox="0 0 54 60" fill="none" xmlns="http://www.w3.org/2000/svg">
<path d="M39.8209 37.348H32.9923V34.6852C35.3252 33.2545 37.1095 31.0153 37.9513 28.3611H39.5273C43.0232 28.3611 45.8672 25.5171 45.8672 22.0213C45.8672 20.0943 45.0019 18.3664 43.6406 17.2027V16.6406C43.6406 7.46496 36.1757 0 27 0C17.8243 0 10.3594 7.46496 10.3594 16.6406V17.2028C8.99813 18.3666 8.13281 20.0943 8.13281 22.0214C8.13281 25.5172 10.9768 28.3612 14.4727 28.3612H16.0487C16.8904 31.0153 18.6748 33.2545 21.0077 34.6853V37.3481H14.1791C6.3866 37.348 0.046875 43.6877 0.046875 51.4802V58.8281C0.046875 59.4752 0.571523 60 1.21875 60H8.97492C9.62215 60 10.1468 59.4752 10.1468 58.8281C10.1468 58.181 9.62215 57.6562 8.97492 57.6562H2.39062V51.4802C2.39062 44.9801 7.67883 39.6918 14.1791 39.6918H14.7416L21.7093 48.7936C21.9145 49.0617 22.2255 49.2282 22.5626 49.2505C22.5885 49.2523 22.6141 49.253 22.6399 49.253C22.9496 49.253 23.248 49.1302 23.4686 48.9097L25.8281 46.5503V57.6562H19.5218C18.8746 57.6562 18.3499 58.181 18.3499 58.8281C18.3499 59.4752 18.8746 60 19.5218 60H52.7812C53.4285 60 53.9531 59.4752 53.9531 58.8281V51.4802C53.9531 43.6877 47.6134 37.348 39.8209 37.348ZM32.6865 39.6918H36.3067L31.2429 46.3065L28.6573 43.721L32.6865 39.6918ZM31.0533 12.2475C30.5951 11.7904 29.853 11.7912 29.396 12.2496L27.8337 13.8158C26.0838 15.5701 23.7558 16.5362 21.2781 16.5362H17.862C17.9184 11.5441 21.9949 7.5 27 7.5C32.0051 7.5 36.0816 11.5441 36.1379 16.5361H34.1051C32.6179 16.5361 31.227 15.7813 30.4117 14.5501L31.0554 13.9048C31.5125 13.4466 31.5116 12.7045 31.0533 12.2475ZM39.5273 26.0175H38.4844V18.0253H39.5273C41.7308 18.0253 43.5234 19.818 43.5234 22.0215C43.5234 24.225 41.7308 26.0175 39.5273 26.0175ZM27 2.34375C34.645 2.34375 40.9073 8.37527 41.2792 15.9296C40.7224 15.7692 40.1351 15.6816 39.5273 15.6816H38.4439C37.955 9.79617 33.0095 5.15625 27 5.15625C20.9905 5.15625 16.045 9.79617 15.5561 15.6814H14.4727C13.8649 15.6814 13.2777 15.7692 12.7208 15.9295C13.0927 8.37527 19.355 2.34375 27 2.34375ZM15.5156 26.0175H14.4727C12.2692 26.0175 10.4766 24.2249 10.4766 22.0214C10.4766 19.8179 12.2692 18.0252 14.4727 18.0252H15.5156V26.0175ZM17.8594 24.9059V18.8798H21.2781C24.0241 18.8798 26.6234 17.9321 28.7045 16.1924C29.974 17.8675 31.9751 18.8798 34.1051 18.8798H36.1406V24.9059C36.1406 25.5395 36.0752 26.1581 35.9515 26.7557H31.1721C30.6884 25.3917 29.3858 24.4119 27.858 24.4119H26.9205C24.982 24.4119 23.4049 25.989 23.4049 27.9275C23.4049 29.8661 24.982 31.4432 26.9205 31.4432H27.858C29.3857 31.4432 30.6884 30.4634 31.1721 29.0994H35.1138C33.5898 32.0256 30.5259 34.0301 26.9999 34.0301C21.9599 34.0302 17.8594 29.9371 17.8594 24.9059ZM29.03 27.9275C29.03 28.5737 28.5043 29.0994 27.8582 29.0994H26.9207C26.2745 29.0994 25.7488 28.5737 25.7488 27.9275C25.7488 27.2814 26.2745 26.7557 26.9207 26.7557H27.8582C28.5043 26.7557 29.03 27.2815 29.03 27.9275ZM27 36.3739C28.2749 36.3739 29.5017 36.1651 30.6485 35.7805V38.4152L27 42.0638L23.3515 38.4151V35.7804C24.4983 36.165 25.7251 36.3739 27 36.3739ZM22.7571 46.3065L17.6933 39.6918H21.3135L25.3427 43.721L22.7571 46.3065ZM51.6094 57.6562H28.1719V46.5503L30.5316 48.91C30.7521 49.1304 31.0505 49.2532 31.3602 49.2532C31.3859 49.2532 31.4118 49.2524 31.4375 49.2507C31.7745 49.2285 32.0855 49.062 32.2908 48.7938L39.2585 39.692H39.821C46.3212 39.6918 51.6094 44.9801 51.6094 51.4802V57.6562Z" fill="#0F7BFE"/>
<path d="M43.3671 51.3281H37.7422C37.095 51.3281 36.5703 51.8529 36.5703 52.5C36.5703 53.1471 37.095 53.6719 37.7422 53.6719H43.3671C44.0143 53.6719 44.539 53.1471 44.539 52.5C44.539 51.8529 44.0143 51.3281 43.3671 51.3281Z" fill="#0F7BFE"/>
<path d="M14.2489 57.6562C13.9395 57.6562 13.6383 57.7815 13.4204 57.9996C13.2012 58.2176 13.077 58.5199 13.077 58.8281C13.077 59.1363 13.2012 59.4387 13.4204 59.6565C13.6372 59.8745 13.9395 60 14.2489 60C14.5571 60 14.8583 59.8746 15.0774 59.6565C15.2954 59.4387 15.4208 59.1363 15.4208 58.8281C15.4208 58.5199 15.2954 58.2176 15.0774 57.9996C14.8583 57.7815 14.5571 57.6562 14.2489 57.6562Z" fill="#0F7BFE"/>
</svg>
