<svg width="52" height="60" viewBox="0 0 52 60" fill="none" xmlns="http://www.w3.org/2000/svg">
<path d="M1.52588e-05 16.0002V43.0002C0.00332138 45.7602 2.23996 47.9968 5.00002 48.0002H15C15.3142 48.0026 15.6095 48.1503 15.8 48.4002L23.692 58.9202C24.2688 59.6116 25.1251 60.008 26.0255 60.0002C26.9258 59.9925 27.7753 59.5814 28.34 58.8802L36.2 48.4002C36.3908 48.1507 36.686 48.0031 37 48.0002H47C49.7601 47.9968 51.9967 45.7602 52 43.0002V16.0002C51.9967 13.2401 49.7601 11.0035 47 11.0002H40.448C38.5858 4.23895 32.2816 -0.324965 25.277 0.0171552C18.8121 0.341807 13.2795 4.76521 11.54 11.0002H5.00002C2.23996 11.0035 0.00332138 13.2401 1.52588e-05 16.0002H1.52588e-05ZM25.371 2.01516C28.9239 1.84305 32.3921 3.13426 34.9673 5.58786C37.5426 8.04147 39.0001 11.4431 39 15.0002C39.0136 18.5964 37.5197 22.0337 34.881 24.4772C32.362 26.9076 30.9577 30.27 31 33.7702V35.0002H21V33.9382C21.0436 30.3619 19.6209 26.9239 17.063 24.4242C13.2805 20.8463 12.0001 15.3554 13.8101 10.4736C15.62 5.59171 20.1703 2.26251 25.371 2.01516ZM29 42.0002H23C21.8954 42.0002 21 41.1047 21 40.0002V37.0002H31V40.0002C31 41.1047 30.1046 42.0002 29 42.0002ZM2.00002 16.0002C2.00002 14.3433 3.34316 13.0002 5.00002 13.0002H11.147C11.119 13.2092 11.08 13.4152 11.062 13.6272C10.6357 18.2051 12.3426 22.7242 15.689 25.8772C17.848 27.9987 19.0444 30.9116 19 33.9382V40.0002C19.0068 41.8186 20.2393 43.4036 22 43.8582V45.0002C22 45.5524 22.4477 46.0002 23 46.0002C23.5523 46.0002 24 45.5524 24 45.0002V44.0002H28V45.0002C28 45.5524 28.4477 46.0002 29 46.0002C29.5523 46.0002 30 45.5524 30 45.0002V43.8582C31.7607 43.4036 32.9932 41.8186 33 40.0002V33.7702C32.9564 30.8235 34.1313 27.9896 36.247 25.9382C39.2923 23.118 41.0162 19.1507 41 15.0002C40.995 14.331 40.9459 13.6629 40.853 13.0002H47C48.6569 13.0002 50 14.3433 50 16.0002V43.0002C50 44.657 48.6569 46.0002 47 46.0002H37C36.0568 46.0047 35.1695 46.4483 34.6 47.2002L26.772 57.6412C26.3652 58.0689 25.6889 58.0868 25.26 57.6812L17.4 47.2002C16.8308 46.4479 15.9433 46.0042 15 46.0002H5.00002C3.34316 46.0002 2.00002 44.657 2.00002 43.0002V16.0002Z" fill="#0F7BFE"/>
<path d="M24.0001 28.0002C23.4478 28.0002 23.0001 28.4479 23.0001 29.0002V32.0002C23.0001 32.5525 23.4478 33.0002 24.0001 33.0002C24.5524 33.0002 25.0001 32.5525 25.0001 32.0002V29.0002C25.0001 28.4479 24.5524 28.0002 24.0001 28.0002Z" fill="#0F7BFE"/>
<path d="M23.0001 23.9999C23.0001 24.5522 23.4478 24.9999 24.0001 24.9999C24.5524 24.9999 25.0001 24.5522 25.0001 23.9999V22.9999C25.0001 22.4477 24.5524 21.9999 24.0001 21.9999C23.4478 21.9999 23.0001 22.4477 23.0001 22.9999V23.9999Z" fill="#0F7BFE"/>
<path d="M28.0001 33.0002C28.5524 33.0002 29.0001 32.5525 29.0001 32.0002V29.0002C29.0001 28.4479 28.5524 28.0002 28.0001 28.0002C27.4478 28.0002 27.0001 28.4479 27.0001 29.0002V32.0002C27.0001 32.5525 27.4478 33.0002 28.0001 33.0002Z" fill="#0F7BFE"/>
<path d="M28.0001 24.9999C28.5524 24.9999 29.0001 24.5522 29.0001 23.9999V22.9999C29.0001 22.4477 28.5524 21.9999 28.0001 21.9999C27.4478 21.9999 27.0001 22.4477 27.0001 22.9999V23.9999C27.0001 24.5522 27.4478 24.9999 28.0001 24.9999Z" fill="#0F7BFE"/>
<path d="M10.0002 7.00021C10.425 7.00041 10.8035 6.73218 10.9442 6.33134C11.0849 5.93049 10.9569 5.48452 10.6252 5.21921L5.62515 1.21921C5.19381 0.87403 4.56432 0.943873 4.21915 1.37521C3.87397 1.80654 3.94381 2.43603 4.37515 2.78121L9.37515 6.78121C9.55256 6.92308 9.77299 7.00031 10.0002 7.00021Z" fill="#0F7BFE"/>
<path d="M42.6252 6.78121L47.6252 2.78121C48.0566 2.43603 48.1264 1.80654 47.7812 1.37521C47.4361 0.943873 46.8066 0.87403 46.3752 1.21921L41.3752 5.21921C41.0962 5.4425 40.9575 5.79769 41.0114 6.15097C41.0652 6.50426 41.3035 6.80198 41.6364 6.93197C41.9693 7.06197 42.3462 7.0045 42.6252 6.78121Z" fill="#0F7BFE"/>
<path d="M4.21893 35.6251C4.38464 35.8323 4.62591 35.9651 4.88961 35.9944C5.15331 36.0237 5.41782 35.9469 5.62493 35.7811L10.6249 31.7811C11.0563 31.4359 11.1261 30.8064 10.7809 30.3751C10.4358 29.9438 9.80627 29.8739 9.37493 30.2191L4.37493 34.2191C4.16773 34.3848 4.03487 34.6261 4.00561 34.8898C3.97636 35.1535 4.05309 35.418 4.21893 35.6251Z" fill="#0F7BFE"/>
<path d="M46.3751 35.7811C46.8065 36.1263 47.4359 36.0564 47.7811 35.6251C48.1263 35.1937 48.0565 34.5643 47.6251 34.2191L42.6251 30.2191C42.1938 29.8739 41.5643 29.9438 41.2191 30.3751C40.874 30.8064 40.9438 31.4359 41.3751 31.7811L46.3751 35.7811Z" fill="#0F7BFE"/>
<path d="M16.8088 12.981C16.8717 12.9936 16.9357 12.9999 16.9998 13C17.4782 12.9991 17.8889 12.6596 17.9798 12.19C18.6968 8.50697 22.3438 6.93897 22.3798 6.92397C22.8904 6.71327 23.1335 6.12856 22.9228 5.61797C22.7121 5.10738 22.1274 4.86427 21.6168 5.07497C21.4258 5.15297 16.9408 7.04897 16.0168 11.81C15.9124 12.352 16.2669 12.8761 16.8088 12.981Z" fill="#0F7BFE"/>
<path d="M5.00005 18.0001H8.00004C8.55233 18.0001 9.00004 17.5524 9.00004 17.0001C9.00004 16.4478 8.55233 16.0001 8.00004 16.0001H5.00005C4.44776 16.0001 4.00005 16.4478 4.00005 17.0001C4.00005 17.5524 4.44776 18.0001 5.00005 18.0001Z" fill="#0F7BFE"/>
<path d="M44.0002 18.0001H47.0002C47.5525 18.0001 48.0002 17.5524 48.0002 17.0001C48.0002 16.4478 47.5525 16.0001 47.0002 16.0001H44.0002C43.4479 16.0001 43.0002 16.4478 43.0002 17.0001C43.0002 17.5524 43.4479 18.0001 44.0002 18.0001Z" fill="#0F7BFE"/>
</svg>
